<svg width="15" height="15" viewBox="0 0 15 15" fill="none" xmlns="http://www.w3.org/2000/svg">
<path d="M7.12292 8.63958L1.81458 13.9479C1.61597 14.1465 1.36319 14.2458 1.05625 14.2458C0.749305 14.2458 0.496527 14.1465 0.297916 13.9479C0.0993051 13.7493 0 13.4965 0 13.1896C0 12.8826 0.0993051 12.6299 0.297916 12.4312L5.60625 7.12292L0.297916 1.81458C0.0993051 1.61597 0 1.36319 0 1.05625C0 0.749305 0.0993051 0.496527 0.297916 0.297916C0.496527 0.0993051 0.749305 0 1.05625 0C1.36319 0 1.61597 0.0993051 1.81458 0.297916L7.12292 5.60625L12.4312 0.297916C12.6299 0.0993051 12.8826 0 13.1896 0C13.4965 0 13.7493 0.0993051 13.9479 0.297916C14.1465 0.496527 14.2458 0.749305 14.2458 1.05625C14.2458 1.36319 14.1465 1.61597 13.9479 1.81458L8.63958 7.12292L13.9479 12.4312C14.1465 12.6299 14.2458 12.8826 14.2458 13.1896C14.2458 13.4965 14.1465 13.7493 13.9479 13.9479C13.7493 14.1465 13.4965 14.2458 13.1896 14.2458C12.8826 14.2458 12.6299 14.1465 12.4312 13.9479L7.12292 8.63958Z" fill="#1D252D"/>
</svg>
