<svg width="15" height="17" viewBox="0 0 15 17" fill="none" xmlns="http://www.w3.org/2000/svg">
<path d="M9.33539 14.8513C9.06772 15.4448 8.89078 16.0889 8.823 16.7643L14.4875 15.5602C14.7551 14.9669 14.9319 14.3227 14.9999 13.6472L9.33539 14.8513Z" fill="white"/>
<path d="M14.4876 11.9529C14.7553 11.3595 14.9322 10.7153 15 10.0398L10.5876 10.9783V9.17427L14.4875 8.34552C14.7551 7.75215 14.9321 7.10794 14.9999 6.4325L10.5874 7.37013V0.882388C9.91131 1.262 9.31085 1.76731 8.82274 2.36335V7.74534L7.05806 8.12042V0C6.38195 0.379481 5.78149 0.884923 5.29338 1.48097V8.49537L1.34489 9.33439C1.07722 9.92776 0.900155 10.572 0.832236 11.2474L5.29338 10.2994V12.5712L0.512392 13.5871C0.24472 14.1805 0.0677852 14.8247 0 15.5002L5.00436 14.4367C5.41174 14.352 5.76187 14.1111 5.98951 13.7797L6.90728 12.4191V12.4188C7.00255 12.278 7.05806 12.1083 7.05806 11.9255V9.9243L8.82274 9.54922V13.1572L14.4875 11.9526L14.4876 11.9529Z" fill="white"/>
</svg>
