<svg width="14" height="15" viewBox="0 0 14 15" fill="none" xmlns="http://www.w3.org/2000/svg">
<path d="M11.9541 5.02246C12.1036 5.02246 12.2395 5.08804 12.3467 5.19824C12.4466 5.31599 12.497 5.46269 12.4824 5.61719C12.4809 5.68694 12.0824 10.7269 11.8545 12.8506C11.7115 14.1562 10.8698 14.9488 9.60742 14.9707C8.6366 14.9925 7.68728 15 6.75293 15C5.76093 15 4.79031 14.9925 3.84863 14.9707C2.62856 14.9413 1.78606 14.1344 1.65039 12.8506C1.4159 10.7189 1.02416 5.68442 1.01562 5.61719C1.00833 5.46269 1.05852 5.31599 1.15918 5.19824C1.25837 5.08809 1.40157 5.02246 1.55176 5.02246H11.9541ZM8.29883 0C8.96175 0.000130988 9.5542 0.463147 9.72559 1.12305L9.84766 1.66992C9.94684 2.11609 10.3335 2.43251 10.7783 2.43262H12.9658C13.2573 2.43288 13.4998 2.67449 13.5 2.98242V3.26758C13.5 3.56816 13.2574 3.81809 12.9658 3.81836H0.535156C0.242765 3.81823 0 3.56824 0 3.26758V2.98242C0.000156583 2.6744 0.24286 2.43275 0.535156 2.43262H2.72266C3.16667 2.43239 3.55343 2.11623 3.65332 1.6709L3.76758 1.15918C3.94563 0.462716 4.53106 0.000129543 5.20117 0H8.29883Z" fill="white"/>
</svg>
