<svg width="20" height="21" viewBox="0 0 20 21" fill="none" xmlns="http://www.w3.org/2000/svg">
<path d="M16.3952 16.8953L3.60379 4.10427L3.60106 4.10114C3.53181 4.03246 3.4497 3.97808 3.35944 3.94112C3.26917 3.90417 3.17251 3.88535 3.07497 3.88575C2.97744 3.88615 2.88093 3.90575 2.79097 3.94345C2.70101 3.98114 2.61936 4.03619 2.55067 4.10544C2.48198 4.17469 2.42761 4.25679 2.39065 4.34706C2.35369 4.43733 2.33488 4.53399 2.33527 4.63153C2.33608 4.82851 2.41511 5.01711 2.55497 5.15583L3.67489 6.27575C2.31673 7.20593 1.14769 8.38571 0.229965 9.75232C0.0801019 9.97358 0 10.2347 0 10.5019C0 10.7692 0.0801019 11.0303 0.229965 11.2515C2.57254 14.7187 6.28622 16.75 9.99989 16.7246C11.2028 16.7289 12.3977 16.5287 13.5335 16.1324L15.3464 17.9453C15.4861 18.0805 15.6732 18.1554 15.8675 18.1541C16.0619 18.1528 16.248 18.0753 16.3858 17.9382C16.5237 17.8011 16.6022 17.6155 16.6046 17.4211C16.607 17.2268 16.5331 17.0392 16.3987 16.8988L16.3952 16.8953ZM9.99989 14.7086C9.29629 14.7083 8.60398 14.5317 7.98622 14.1949C7.36846 13.8582 6.84496 13.3719 6.46355 12.7807C6.08214 12.1894 5.85499 11.512 5.80286 10.8104C5.75073 10.1087 5.87528 9.40515 6.16512 8.76403L7.33504 9.93396C7.24081 10.378 7.25902 10.8386 7.38802 11.2738C7.51702 11.7091 7.75272 12.1052 8.07371 12.4261C8.3947 12.7471 8.79081 12.9828 9.22604 13.1118C9.66127 13.2408 10.1218 13.2591 10.5659 13.1648L11.7358 14.3347C11.1905 14.582 10.5986 14.7095 9.99989 14.7086ZM19.7698 9.75036C17.4272 6.28122 13.7136 4.24997 9.99989 4.27536C8.79697 4.271 7.60207 4.47126 6.46629 4.86755L8.26317 6.66442C9.04289 6.31157 9.91163 6.20472 10.7536 6.35812C11.5956 6.51152 12.3708 6.91789 12.976 7.52306C13.5812 8.12824 13.9876 8.90348 14.141 9.74546C14.2944 10.5874 14.1875 11.4562 13.8347 12.2359L16.3245 14.7258C17.6829 13.7957 18.8521 12.6159 19.7698 11.2492C19.9196 11.028 19.9996 10.7669 19.9996 10.4998C19.9996 10.2326 19.9196 9.97159 19.7698 9.75036Z" fill="black" fill-opacity="0.6"/>
<path d="M9.99961 7.77576C9.80938 7.77578 9.61968 7.79568 9.43359 7.83513L12.6645 11.0656C12.7487 10.6687 12.7432 10.258 12.6484 9.86345C12.5536 9.46892 12.3719 9.10056 12.1165 8.78527C11.8611 8.46997 11.5385 8.21571 11.1722 8.04105C10.806 7.8664 10.4054 7.77576 9.99961 7.77576Z" fill="black" fill-opacity="0.7"/>
</svg>
