<svg width="18" height="18" viewBox="0 0 18 18" fill="none" xmlns="http://www.w3.org/2000/svg">
<path fill-rule="evenodd" clip-rule="evenodd" d="M15.3595 5.68358L11.32 2.34383C10.6699 1.79875 9.84862 1.5 9.00025 1.5C8.15187 1.5 7.33059 1.79875 6.68049 2.34383L2.64099 5.68358C1.91349 6.28583 1.50024 7.19783 1.50024 8.14958V13.3583C1.50024 15.0496 2.80074 16.5001 4.50024 16.5001H6.00025C6.39807 16.5001 6.7796 16.342 7.0609 16.0607C7.34221 15.7794 7.50025 15.3979 7.50025 15.0001V12.5611C7.50025 11.6101 8.21425 10.9186 9.00025 10.9186C9.78625 10.9186 10.5002 11.6101 10.5002 12.5611V15.0001C10.5002 15.3979 10.6583 15.7794 10.9396 16.0607C11.2209 16.342 11.6024 16.5001 12.0002 16.5001H13.5002C15.1997 16.5001 16.5002 15.0496 16.5002 13.3576V8.14958C16.5002 7.19783 16.0877 6.28583 15.3595 5.68358Z" fill="#00A13A"/>
</svg>
