<svg width="18" height="18" viewBox="0 0 18 18" fill="none" xmlns="http://www.w3.org/2000/svg">
<path fill-rule="evenodd" clip-rule="evenodd" d="M15.3597 5.68358L11.3202 2.34383C10.6701 1.79875 9.84886 1.5 9.00049 1.5C8.15212 1.5 7.33083 1.79875 6.68074 2.34383L2.64124 5.68358C1.91374 6.28583 1.50049 7.19783 1.50049 8.14958V13.3583C1.50049 15.0496 2.80099 16.5001 4.50049 16.5001H6.00049C6.39831 16.5001 6.77984 16.342 7.06115 16.0607C7.34245 15.7794 7.50049 15.3979 7.50049 15.0001V12.5611C7.50049 11.6101 8.21449 10.9186 9.00049 10.9186C9.78649 10.9186 10.5005 11.6101 10.5005 12.5611V15.0001C10.5005 15.3979 10.6585 15.7794 10.9398 16.0607C11.2211 16.342 11.6027 16.5001 12.0005 16.5001H13.5005C15.2 16.5001 16.5005 15.0496 16.5005 13.3576V8.14958C16.5005 7.19783 16.088 6.28583 15.3597 5.68358Z" fill="#BABABA"/>
</svg>
