<svg width="18" height="18" viewBox="0 0 18 18" fill="none" xmlns="http://www.w3.org/2000/svg">
<path d="M9 9.5625C8.33249 9.5625 7.67997 9.36456 7.12495 8.99371C6.56994 8.62286 6.13735 8.09576 5.88191 7.47906C5.62646 6.86236 5.55963 6.18376 5.68985 5.52907C5.82008 4.87439 6.14151 4.27302 6.61352 3.80102C7.08552 3.32901 7.68689 3.00758 8.34157 2.87735C8.99626 2.74713 9.67486 2.81396 10.2916 3.06941C10.9083 3.32485 11.4354 3.75744 11.8062 4.31245C12.1771 4.86747 12.375 5.51999 12.375 6.1875C12.375 7.08261 12.0194 7.94105 11.3865 8.57399C10.7536 9.20692 9.89511 9.5625 9 9.5625ZM9 3.9375C8.55499 3.9375 8.11998 4.06946 7.74997 4.31669C7.37996 4.56393 7.09157 4.91533 6.92127 5.32646C6.75098 5.7376 6.70642 6.19 6.79323 6.62645C6.88005 7.06291 7.09434 7.46382 7.40901 7.77849C7.72368 8.09316 8.12459 8.30745 8.56105 8.39427C8.99751 8.48109 9.4499 8.43653 9.86104 8.26623C10.2722 8.09593 10.6236 7.80755 10.8708 7.43753C11.118 7.06752 11.25 6.63251 11.25 6.1875C11.25 5.59076 11.0129 5.01847 10.591 4.59651C10.169 4.17455 9.59674 3.9375 9 3.9375Z" fill="#BABABA"/>
<path d="M9.00035 17.4375C7.75297 17.4367 6.5213 17.1593 5.394 16.6253C4.2667 16.0913 3.27181 15.314 2.48098 14.3494L2.18848 13.9894L2.48098 13.635C3.27248 12.6716 4.26766 11.8956 5.39492 11.3628C6.52219 10.83 7.75352 10.5537 9.00035 10.5537C10.2472 10.5537 11.4785 10.83 12.6058 11.3628C13.733 11.8956 14.7282 12.6716 15.5197 13.635L15.8122 13.9894L15.5197 14.3494C14.7289 15.314 13.734 16.0913 12.6067 16.6253C11.4794 17.1593 10.2477 17.4367 9.00035 17.4375ZM3.66223 13.995C4.34636 14.7274 5.17374 15.3113 6.093 15.7105C7.01225 16.1098 8.00377 16.3158 9.00598 16.3158C10.0082 16.3158 10.9997 16.1098 11.919 15.7105C12.8382 15.3113 13.6656 14.7274 14.3497 13.995C13.6656 13.2626 12.8382 12.6787 11.919 12.2794C10.9997 11.8802 10.0082 11.6742 9.00598 11.6742C8.00377 11.6742 7.01225 11.8802 6.093 12.2794C5.17374 12.6787 4.34636 13.2626 3.66223 13.995Z" fill="#BABABA"/>
<path d="M9.00026 17.4375C7.08368 17.4388 5.22377 16.7875 3.72665 15.5909C2.22953 14.3943 1.18441 12.7236 0.763312 10.8538C0.342214 8.98409 0.570228 7.02668 1.40983 5.30379C2.24942 3.5809 3.65057 2.19518 5.38266 1.37472C7.11475 0.554257 9.07456 0.347938 10.9395 0.789721C12.8045 1.2315 14.4635 2.29506 15.6435 3.80534C16.8234 5.31563 17.4541 7.18264 17.4316 9.09909C17.4091 11.0155 16.7348 12.8672 15.5196 14.3494C14.7288 15.314 13.7339 16.0913 12.6066 16.6253C11.4793 17.1593 10.2476 17.4367 9.00026 17.4375ZM9.00026 1.68751C7.55399 1.68751 6.14019 2.11638 4.93765 2.91988C3.73512 3.72339 2.79786 4.86545 2.24439 6.20163C1.69093 7.53782 1.54612 9.00812 1.82827 10.4266C2.11042 11.8451 2.80687 13.1481 3.82954 14.1707C4.85222 15.1934 6.15518 15.8898 7.57367 16.172C8.99215 16.4542 10.4625 16.3093 11.7986 15.7559C13.1348 15.2024 14.2769 14.2651 15.0804 13.0626C15.8839 11.8601 16.3128 10.4463 16.3128 9.00001C16.3128 7.06061 15.5423 5.20065 14.171 3.82929C12.7996 2.45793 10.9397 1.68751 9.00026 1.68751Z" fill="#BABABA"/>
<path d="M2.91455 13.9951C2.91455 13.9951 8.57893 20.3233 14.3446 14.6251L15.0871 13.9951C15.0871 13.9951 10.2721 9.00015 5.38393 11.9983L2.91455 13.9951Z" fill="#BABABA"/>
<path d="M9 9C10.5533 9 11.8125 7.7408 11.8125 6.1875C11.8125 4.6342 10.5533 3.375 9 3.375C7.4467 3.375 6.1875 4.6342 6.1875 6.1875C6.1875 7.7408 7.4467 9 9 9Z" fill="#BABABA"/>
</svg>
