<svg width="23" height="23" viewBox="0 0 23 23" fill="none" xmlns="http://www.w3.org/2000/svg">
<path d="M3.83325 6.70834V5.75C3.83325 5.24167 4.03519 4.75416 4.39463 4.39471C4.75408 4.03527 5.24159 3.83334 5.74992 3.83334H7.66659M3.83325 16.2917V17.25C3.83325 17.7583 4.03519 18.2458 4.39463 18.6053C4.75408 18.9647 5.24159 19.1667 5.74992 19.1667H7.66659M15.3333 3.83334H17.2499C17.7582 3.83334 18.2458 4.03527 18.6052 4.39471C18.9647 4.75416 19.1666 5.24167 19.1666 5.75V6.70834M15.3333 19.1667H17.2499C17.7582 19.1667 18.2458 18.9647 18.6052 18.6053C18.9647 18.2458 19.1666 17.7583 19.1666 17.25V16.2917M4.79159 11.5H18.2083" stroke="#383838" stroke-width="1.5" stroke-linecap="round" stroke-linejoin="round"/>
</svg>
