<svg width="18" height="19" viewBox="0 0 18 19" fill="none" xmlns="http://www.w3.org/2000/svg">
<path d="M17.385 14.3434C17.7062 13.6313 17.9186 12.8583 17.9999 12.0478L12.705 13.1739V11.0091L17.3849 10.0146C17.7061 9.30253 17.9184 8.52948 17.9997 7.71896L12.7048 8.84411V1.05886C11.8935 1.51439 11.173 2.12076 10.5872 2.83601V9.29436L8.46963 9.74446V0C7.65829 0.455375 6.93775 1.0619 6.35202 1.77715V10.1944L1.61387 11.2012C1.29266 11.9133 1.08018 12.6863 0.998678 13.4968L6.35202 12.3592V15.0853L0.614867 16.3045C0.293663 17.0165 0.0813418 17.7896 0 18.6001L6.0052 17.324C6.49405 17.2223 6.91421 16.9333 7.18738 16.5355L8.28869 14.9028V14.9025C8.40302 14.7336 8.46963 14.5299 8.46963 14.3105V11.9091L10.5872 11.459V15.7886L17.3849 14.343L17.385 14.3434Z" fill="#231F20"/>
</svg>
